<?xml version="1.0" encoding="UTF-8"?>
<svg width="36px" height="25px" viewBox="0 0 36 25" version="1.1" xmlns="http://www.w3.org/2000/svg" xmlns:xlink="http://www.w3.org/1999/xlink">
    <!-- Generator: Sketch 55.2 (78181) - https://sketchapp.com -->
    <title>合并形状 copy 2</title>
    <desc>Created with Sketch.</desc>
    <g id="深蓝保保险测评_PC_190703" stroke="none" stroke-width="1" fill="none" fill-rule="evenodd">
        <g id="测评详情_H5_2" transform="translate(-38.000000, -2496.000000)" fill="#2873FF" fill-rule="nonzero">
            <g id="深蓝保点评" transform="translate(18.000000, 1407.000000)">
                <g id="3" transform="translate(1.000000, 1084.000000)">
                    <path d="M37.0288462,17.1721311 C39.7599246,17.1721311 41.9739011,14.9922717 41.9739011,12.3032787 C41.9739011,9.61428573 39.7599246,7.43442623 37.0288462,7.43442623 C34.2977677,7.43442623 32.0837912,9.61428573 32.0837912,12.3032787 C32.0837912,14.9922717 34.2977677,17.1721311 37.0288462,17.1721311 Z M37.0288462,19.6065574 C32.9322285,19.6065574 29.6112637,16.3367681 29.6112637,12.3032787 C29.6112637,8.26978925 32.9322285,5 37.0288462,5 C41.1254638,5 44.4464286,8.26978925 44.4464286,12.3032787 C44.4464286,16.3367681 41.1254638,19.6065574 37.0288462,19.6065574 Z M37.0288462,19.6065574 C32.441216,19.6065574 28.6494578,22.9615805 28.046499,27.3155738 L46.0111933,27.3155738 C45.4082345,22.9615805 41.6164763,19.6065574 37.0288462,19.6065574 Z M25.4903846,29.75 L25.4903846,28.5327869 C25.4903846,22.25847 30.6563298,17.1721311 37.0288462,17.1721311 C43.4013625,17.1721311 48.5673077,22.25847 48.5673077,28.5327869 L48.5673077,29.75 L25.4903846,29.75 Z M27.8846154,19.3322176 C24.3160062,19.3322176 21.4230769,22.1935275 21.4230769,25.7231321 C21.4230769,26.384933 20.8806527,26.9214286 20.2115385,26.9214286 C19.5424242,26.9214286 19,26.384933 19,25.7231321 C19,22.259899 21.0255662,19.2645914 23.9688609,17.8329384 C22.8016939,16.7809663 22.0692308,15.2652835 22.0692308,13.5803945 C22.0692308,10.4037503 24.6728671,7.82857143 27.8846154,7.82857143 C28.5537296,7.82857143 29.0961538,8.36506703 29.0961538,9.0268679 C29.0961538,9.68866877 28.5537296,10.2251644 27.8846154,10.2251644 C26.0110956,10.2251644 24.4923077,11.7273521 24.4923077,13.5803945 C24.4923077,15.4334369 26.0110956,16.9356246 27.8846154,16.9356246 C28.5537296,16.9356246 29.0961538,17.4721202 29.0961538,18.1339211 C29.0961538,18.795722 28.5537296,19.3322176 27.8846154,19.3322176 Z M46.1153846,19.3322176 C45.4462704,19.3322176 44.9038462,18.795722 44.9038462,18.1339211 C44.9038462,17.4721202 45.4462704,16.9356246 46.1153846,16.9356246 C47.9889044,16.9356246 49.5076923,15.4334369 49.5076923,13.5803945 C49.5076923,11.7273521 47.9889044,10.2251644 46.1153846,10.2251644 C45.4462704,10.2251644 44.9038462,9.68866877 44.9038462,9.0268679 C44.9038462,8.36506703 45.4462704,7.82857143 46.1153846,7.82857143 C49.3271329,7.82857143 51.9307692,10.4037503 51.9307692,13.5803945 C51.9307692,15.2652835 51.1983061,16.7809663 50.0311391,17.8329384 C52.9744338,19.2645914 55,22.259899 55,25.7231321 C55,26.384933 54.4575758,26.9214286 53.7884615,26.9214286 C53.1193473,26.9214286 52.5769231,26.384933 52.5769231,25.7231321 C52.5769231,22.1935275 49.6839938,19.3322176 46.1153846,19.3322176 Z" id="合并形状-copy-2"></path>
                </g>
            </g>
        </g>
    </g>
</svg>