<?xml version="1.0" encoding="UTF-8"?>
<svg width="28px" height="36px" viewBox="0 0 28 36" version="1.1" xmlns="http://www.w3.org/2000/svg" xmlns:xlink="http://www.w3.org/1999/xlink">
    <!-- Generator: Sketch 55.2 (78181) - https://sketchapp.com -->
    <title>合并形状 copy 4</title>
    <desc>Created with Sketch.</desc>
    <g id="深蓝保保险测评_PC_190703" stroke="none" stroke-width="1" fill="none" fill-rule="evenodd">
        <g id="测评详情_H5_2" transform="translate(-43.000000, -2733.000000)" fill="#2873FF" fill-rule="nonzero">
            <g id="深蓝保点评" transform="translate(18.000000, 1407.000000)">
                <g id="3" transform="translate(2.000000, 1326.000000)">
                    <path d="M42.1393054,15.0609109 C42.6942609,14.5059554 43.5940217,14.5059554 44.1489773,15.0609109 C44.7039328,15.6158665 44.7039328,16.5156273 44.1489773,17.0705828 L36.7801803,24.4393798 C35.485284,25.7342762 33.3858422,25.7342762 32.0909458,24.4393798 L28.5906551,20.9390891 C28.0356995,20.3841335 28.0356995,19.4843727 28.5906551,18.9294172 C29.1456107,18.3744616 30.0453714,18.3744616 30.600327,18.9294172 L34.1006177,22.4297079 C34.2856029,22.6146931 34.5855232,22.6146931 34.7705084,22.4297079 L42.1393054,15.0609109 Z M30.8531856,6.18379572 L30.8531856,5.78393352 C30.8531856,2.58955524 33.4427408,3.83248988e-13 36.6371191,3.83248988e-13 C39.8314974,3.83248988e-13 42.4210526,2.58955524 42.4210526,5.78393352 L42.4210526,6.14522096 C43.0495775,6.29196745 43.5177377,6.85585432 43.5177377,7.52908587 C43.5177377,8.31391157 42.8815108,8.9501385 42.0966851,8.9501385 L31.3121889,8.9501385 C30.5273632,8.9501385 29.8911363,8.31391157 29.8911363,7.52908587 C29.8911363,6.90487838 30.2935971,6.37467064 30.8531856,6.18379572 Z M33.6952909,6.10803324 L39.5789474,6.10803324 L39.5789474,5.78393352 C39.5789474,4.15920664 38.261846,2.84210526 36.6371191,2.84210526 C35.0123922,2.84210526 33.6952909,4.15920664 33.6952909,5.78393352 L33.6952909,6.10803324 Z M45.3628809,8.9501385 C44.5780552,8.9501385 43.9418283,8.31391157 43.9418283,7.52908587 C43.9418283,6.74426018 44.5780552,6.10803324 45.3628809,6.10803324 C48.0753486,6.10803324 50.2742382,8.30692282 50.2742382,11.0193906 L50.2742382,31.0886427 C50.2742382,33.8011104 48.0753486,36 45.3628809,36 L27.9113573,36 C25.1988896,36 23,33.8011104 23,31.0886427 L23,11.0193906 C23,8.30692282 25.1988896,6.10803324 27.9113573,6.10803324 C28.696183,6.10803324 29.33241,6.74426018 29.33241,7.52908587 C29.33241,8.31391157 28.696183,8.9501385 27.9113573,8.9501385 C26.768541,8.9501385 25.8421053,9.87657422 25.8421053,11.0193906 L25.8421053,31.0886427 C25.8421053,32.231459 26.768541,33.1578947 27.9113573,33.1578947 L45.3628809,33.1578947 C46.5056973,33.1578947 47.432133,32.231459 47.432133,31.0886427 L47.432133,11.0193906 C47.432133,9.87657422 46.5056973,8.9501385 45.3628809,8.9501385 Z" id="合并形状-copy-4"></path>
                </g>
            </g>
        </g>
    </g>
</svg>