<?xml version="1.0" encoding="UTF-8"?>
<svg width="33px" height="33px" viewBox="0 0 33 33" version="1.1" xmlns="http://www.w3.org/2000/svg" xmlns:xlink="http://www.w3.org/1999/xlink">
    <!-- Generator: Sketch 55.2 (78181) - https://sketchapp.com -->
    <title>合并形状 copy</title>
    <desc>Created with Sketch.</desc>
    <g id="深蓝保保险测评_PC_190703" stroke="none" stroke-width="1" fill="none" fill-rule="evenodd">
        <g id="测评详情_H5_2" transform="translate(-40.000000, -2272.000000)" fill="#2873FF" fill-rule="nonzero">
            <g id="深蓝保点评" transform="translate(18.000000, 1407.000000)">
                <g id="2" transform="translate(2.000000, 861.000000)">
                    <g id="分组" transform="translate(20.000000, 4.000000)">
                        <path d="M16.5,33 C7.38730163,33 0,25.6126984 0,16.5 C0,7.38730163 7.38730163,0 16.5,0 C25.6126984,0 33,7.38730163 33,16.5 C33,25.6126984 25.6126984,33 16.5,33 Z M16.5,30 C23.9558441,30 30,23.9558441 30,16.5 C30,9.04415588 23.9558441,3 16.5,3 C9.04415588,3 3,9.04415588 3,16.5 C3,23.9558441 9.04415588,30 16.5,30 Z M15.012,8.364 L18.012,8.364 L17.46,20.652 L15.564,20.652 L15.012,8.364 Z M16.5,22.068 C17.004,22.068 17.436,22.212 17.772,22.548 C18.108,22.86 18.276,23.268 18.276,23.772 C18.276,24.276 18.108,24.684 17.772,25.02 C17.412,25.332 16.98,25.5 16.5,25.5 C16.02,25.5 15.612,25.332 15.276,24.996 C14.916,24.66 14.748,24.252 14.748,23.772 C14.748,23.268 14.916,22.86 15.276,22.548 C15.612,22.212 16.02,22.068 16.5,22.068 Z" id="合并形状-copy"></path>
                    </g>
                </g>
            </g>
        </g>
    </g>
</svg>