<?xml version="1.0" encoding="UTF-8"?>
<svg width="133px" height="36px" viewBox="0 0 133 36" version="1.1" xmlns="http://www.w3.org/2000/svg" xmlns:xlink="http://www.w3.org/1999/xlink">
    <!-- Generator: Sketch 61.2 (89653) - https://sketch.com -->
    <title>logo_h5_2</title>
    <desc>Created with Sketch.</desc>
    <g id="V2.5.0_h5" stroke="none" stroke-width="1" fill="none" fill-rule="evenodd">
        <g id="深蓝保测评官网H5_V2.1.0_保险百科入口_1" transform="translate(-105.000000, -154.000000)" fill="#0C264A">
            <g id="编组-2备份-3">
                <g id="顶部导航栏" transform="translate(0.000000, 126.000000)">
                    <g id="logo_H5" transform="translate(20.000000, 16.000000)">
                        <g id="logo_h5_2" transform="translate(84.946847, 11.529395)">
                            <path d="M30.7478326,25.1417116 C30.6267163,25.7863628 30.4947163,26.4474791 30.3448558,27.1334326 C30.1701581,27.9326884 29.9820651,28.7285953 29.7794605,29.5222698 C29.5765767,30.3156651 29.3714605,31.0861767 29.1632744,31.8346419 C28.9548093,32.583107 28.7499721,33.4127814 28.5470884,34.0540837 L28.5470884,34.0540837 L33.0373209,34.0540837 L33.0373209,35.7424558 L17.8453209,35.7424558 L17.8453209,34.0540837 L26.4032744,34.0540837 C26.6170419,33.4016186 26.8336,32.5579907 27.0529488,31.7925023 C27.2728558,31.027293 27.4835535,30.2425488 27.6861581,29.4377116 C27.8890419,28.6331535 28.0771349,27.8369674 28.2515535,27.0491535 C28.4000186,26.3805023 28.5242047,25.7458977 28.6277395,25.1417116 L28.6277395,25.1417116 Z M102.869312,23.5886884 L102.869312,34.1218977 L103.554428,34.1218977 L103.554428,35.7424558 L101.164474,35.7424558 L101.164474,25.1417116 L99.8140558,25.1417116 L99.8140558,23.5886884 L102.869312,23.5886884 Z M121.799284,20.4259628 L120.930819,22.9470791 L120.930819,35.7424279 L119.175191,35.7424279 L119.175191,28.0451256 L119.05854,28.4333116 L117.273609,28.4333116 L119.911098,20.4385209 L121.799284,20.4259628 Z M111.697628,20.4491535 L111.900233,21.867107 L115.232326,21.867107 L115.232326,23.4706419 L112.136326,23.4706419 C112.260233,24.1794791 112.392233,24.8969674 112.533163,25.6228279 C112.673814,26.3486884 112.822558,27.0776186 112.980512,27.8087814 C113.137907,27.3812465 113.275767,26.9620837 113.393814,26.551293 C113.51214,26.1407814 113.690744,25.5017116 113.780884,25.1417116 L113.780884,25.1417116 L115.232326,25.1417116 C115.029721,25.9518512 114.724698,27.0352 114.466,27.8849674 C114.206744,28.7344558 113.914279,29.5811535 113.588047,30.4250605 C113.835581,31.3931535 114.091488,32.3241302 114.356047,33.2188279 C114.620326,34.1135256 114.899116,34.9546419 115.19186,35.7424558 L115.19186,35.7424558 L113.385442,35.7424558 C113.227767,35.3034791 113.078744,34.8533395 112.938093,34.3920372 C112.797442,33.9307349 112.653721,33.4526884 112.507767,32.9570605 C112.271395,33.4635721 112.02107,33.9474791 111.756791,34.4087814 C111.491953,34.8700837 111.219023,35.3146419 110.937721,35.7424558 L110.937721,35.7424558 L109.114837,35.7424558 C109.621628,35.0336186 110.110558,34.2371535 110.583581,33.3538977 C111.056047,32.4703628 111.494744,31.5505488 111.900233,30.5941767 C111.630093,29.4572465 111.379209,28.2926884 111.148977,27.0999442 C110.918186,25.9072 110.707209,24.6974326 110.516047,23.4706419 L110.516047,23.4706419 L106.599581,23.4706419 L106.599581,25.1417116 L110.026558,25.1417116 L110.026558,31.7827349 C110.026558,32.2892465 109.981628,32.7592 109.891209,33.1923163 C109.80107,33.6257116 109.677442,34.0166884 109.520047,34.3655256 L109.520047,34.3655256 L107.612326,34.3655256 C107.803767,34.1065488 107.992419,33.7577116 108.178,33.319014 C108.36386,32.8803163 108.456791,32.3682233 108.456791,31.7827349 L108.456791,31.7827349 L108.456791,26.5934326 L106.599581,26.5934326 L106.599581,31.2859907 C106.58814,32.3777116 106.523674,33.2894326 106.405628,34.0205953 C106.287302,34.7520372 106.149721,35.3258047 105.992047,35.7424558 L105.992047,35.7424558 L104.01707,35.7424558 C104.129535,35.5284093 104.236698,35.2554791 104.337721,34.9236651 C104.439023,34.5918512 104.529163,34.2257116 104.60786,33.8266419 C104.686558,33.427293 104.751302,33.0019907 104.802093,32.5521302 C104.852884,32.1019907 104.878,31.6521302 104.878,31.2014326 L104.878,31.2014326 L104.878,21.867107 L110.261535,21.867107 L110.093814,20.4491535 L111.697628,20.4491535 Z M74.3969953,20.4322419 L74.3969953,34.0377302 L76.4060186,34.0377302 L76.4060186,20.4322419 L78.2626698,20.4322419 L78.2626698,34.0377302 L83.0732744,34.0377302 L83.0732744,35.7422884 L67.7464837,35.7422884 L67.7464837,34.0377302 L72.5403442,34.0377302 L72.5403442,20.4322419 L74.3969953,20.4322419 Z M8.84822326,20.4492093 L8.84822326,22.6435349 L14.7561302,22.6435349 L14.7561302,31.319814 L8.84822326,31.319814 L8.84822326,35.7425116 L6.85622326,35.7425116 L6.85622326,31.319814 L1.03259535,31.319814 L1.03259535,22.6435349 L6.85622326,22.6435349 L6.85622326,20.4492093 L8.84822326,20.4492093 Z M57.3822512,20.4322419 L57.0278326,21.8672186 L64.3369488,21.8672186 L64.3369488,23.5045209 L56.5888558,23.5045209 L56.0826233,25.1418233 L65.1769488,25.1418233 L65.1769488,26.7791256 L55.5256,26.7791256 C55.4242977,27.0604279 55.3227163,27.3392186 55.221414,27.6143814 C55.1206698,27.8906605 55.0132279,28.1577302 54.9010419,28.4164279 L54.9010419,28.4164279 L64.7756465,28.4164279 L59.9351814,34.8093581 L61.1466233,35.7422884 L58.2431814,35.7422884 L52.1326698,30.9316837 L54.9010419,30.9316837 L58.3601116,33.5959628 L61.1971349,30.036707 L52.0989023,30.036707 C52.3461581,29.5081488 52.5797395,28.9731721 52.7993674,28.4334512 C53.0187163,27.8931721 53.229693,27.3420093 53.4322977,26.7791256 L53.4322977,26.7791256 L50.2082047,26.7791256 L50.2082047,25.1418233 L54.0063442,25.1418233 C54.0964837,24.8714047 54.1832744,24.5990326 54.2681116,24.3230326 C54.3523907,24.0473116 54.4394605,23.7746605 54.5296,23.5045209 L54.5296,23.5045209 L51.0482047,23.5045209 L51.0482047,21.8672186 L54.9853209,21.8672186 L55.3564837,20.4322419 L57.3822512,20.4322419 Z M91.903014,20.4260465 L91.903014,35.7254884 L90.9848744,35.7254884 L90.9848744,20.4260465 L91.903014,20.4260465 Z M42.2969674,20.4260465 L42.2969674,35.7254884 L41.3788279,35.7254884 L41.3788279,20.4260465 L42.2969674,20.4260465 Z M132.679293,29.6487442 L132.679293,35.7254884 L122.449991,35.7254884 L122.449991,29.6487442 L132.679293,29.6487442 Z M130.940409,31.1342326 L124.188595,31.1342326 L124.188595,34.24 L130.940409,34.24 L130.940409,31.1342326 Z M82.3980372,21.867107 L81.5541302,32.295107 L79.7644558,32.295107 L80.6761767,21.867107 L82.3980372,21.867107 Z M22.2250419,25.1417674 L23.9633674,32.2951628 L21.7916465,32.2951628 L20.1256,25.1417674 L22.2250419,25.1417674 Z M70.1769023,21.8671628 L71.0883442,32.2951628 L69.2992279,32.2951628 L68.4550419,21.8671628 L70.1769023,21.8671628 Z M12.7978977,24.3148837 L8.84822326,24.3148837 L8.84822326,29.6487442 L12.7978977,29.6487442 L12.7978977,24.3148837 Z M6.85622326,24.3148837 L2.99082791,24.3148837 L2.99082791,29.6487442 L6.85622326,29.6487442 L6.85622326,24.3148837 Z M132.679293,26.947907 L132.679293,28.4333953 L122.449991,28.4333953 L122.449991,26.947907 L132.679293,26.947907 Z M130.930921,24.2808372 L130.930921,25.7493023 L124.181898,25.7493023 L124.181898,24.2808372 L130.930921,24.2808372 Z M26.2008372,20.4491814 C26.2683721,20.6406233 26.3384186,20.8571814 26.411814,21.0991349 C26.4849302,21.3410884 26.5555349,21.6081581 26.6227907,21.9009023 L26.6227907,21.9009023 L32.5982326,21.9009023 L32.5982326,23.6224837 L18.2671628,23.6224837 L18.2671628,21.9009023 L24.2933953,21.9009023 C24.2367442,21.6422047 24.1778605,21.3918791 24.115907,21.1499256 C24.0542326,20.907693 23.9894884,20.6741116 23.9219535,20.4491814 L23.9219535,20.4491814 Z M128.223079,20.4492093 C128.279451,20.6068837 128.332753,20.7810233 128.383544,20.9724651 C128.434056,21.1636279 128.487358,21.3606512 128.54373,21.5632558 L128.54373,21.5632558 L132.679265,21.5632558 L132.679265,23.0657674 L122.449963,23.0657674 L122.449963,21.5632558 L126.484474,21.5632558 C126.450707,21.372093 126.411079,21.1890233 126.366149,21.0146047 C126.321219,20.8404651 126.270428,20.6515349 126.214335,20.4492093 L126.214335,20.4492093 Z M102.194242,20.4490419 L102.869312,22.6391814 L101.177312,22.6391814 L100.539916,20.4490419 L102.194242,20.4490419 Z M114.427321,20.4491256 L114.728437,21.3801023 L113.237647,21.3801023 L112.9756,20.4491256 L114.427321,20.4491256 Z M49.2414791,4.00309767 C51.5538512,4.00309767 52.617107,5.47128372 52.617107,7.93546977 L52.617107,13.7417953 L50.6761767,13.7417953 L50.6761767,12.572214 C49.8325488,13.2980744 48.9716186,13.7417953 47.857293,13.7417953 C46.2540372,13.7417953 45.1232465,12.6950047 45.1232465,11.0579814 C45.1232465,9.06653953 46.8110605,8.03677209 50.6761767,7.6148186 C50.6591535,6.53453953 50.2712465,5.58933023 48.9038047,5.58933023 C47.925386,5.58933023 47.0136651,6.02802791 46.2202698,6.53453953 L45.4946884,5.21816744 C46.4566419,4.61035349 47.7562698,4.00309767 49.2414791,4.00309767 Z M89.6858326,4.00298605 C91.9811814,4.00298605 94.0571814,5.79210233 94.0571814,8.8975907 C94.0571814,11.9693116 91.9811814,13.7416837 89.6858326,13.7416837 C87.3902047,13.7416837 85.3142047,11.9693116 85.3142047,8.8975907 C85.3142047,5.79210233 87.3902047,4.00298605 89.6858326,4.00298605 Z M79.8446047,4.00309767 C82.1569767,4.00309767 83.2202326,5.47128372 83.2202326,7.93546977 L83.2202326,13.7417953 L81.2793023,13.7417953 L81.2793023,12.5719349 C80.4356744,13.2977953 79.5747442,13.7417953 78.4604186,13.7417953 C76.8571628,13.7417953 75.7263721,12.6950047 75.7263721,11.0579814 C75.7263721,9.06653953 77.414186,8.03677209 81.2793023,7.6148186 C81.2625581,6.53453953 80.8743721,5.58933023 79.5072093,5.58933023 C78.5285116,5.58933023 77.6167907,6.02802791 76.8236744,6.53453953 L76.097814,5.21816744 C77.0600465,4.61035349 78.3593953,4.00309767 79.8446047,4.00309767 Z M121.538772,4.00298605 L121.538772,5.39805581 C122.331888,4.55414884 123.125284,4.00298605 124.272819,4.00298605 C125.656726,4.00298605 126.433656,4.64428837 126.838586,5.70754419 C127.749749,4.72856744 128.695237,4.00298605 129.859795,4.00298605 C131.800726,4.00298605 132.712167,5.31935814 132.712167,7.68224186 L132.712167,13.7416837 L130.771237,13.7416837 L130.771237,7.91861395 C130.771237,6.31507907 130.264726,5.67377674 129.218214,5.67377674 C128.576633,5.67377674 127.901842,6.09573023 127.12547,6.93963721 L127.12547,13.7416837 L125.18454,13.7416837 L125.18454,7.91861395 C125.18454,6.31507907 124.694772,5.67377674 123.631516,5.67377674 C123.007237,5.67377674 122.315144,6.09573023 121.538772,6.93963721 L121.538772,13.7416837 L119.614586,13.7416837 L119.614586,4.00298605 L121.538772,4.00298605 Z M4.76381395,4.00293023 C6.01293023,4.00293023 7.02567442,4.50916279 7.78502326,5.09995349 L6.8735814,6.29827907 C6.23227907,5.82581395 5.57395349,5.48813953 4.79730233,5.48813953 C3.78483721,5.48813953 3.31237209,5.99465116 3.31237209,6.63595349 C3.31237209,7.42934884 4.27432558,7.73297674 5.28706977,8.1044186 C6.58669767,8.59362791 8.02139535,9.16767442 8.02139535,10.9230233 C8.02139535,12.4757674 6.78902326,13.7416279 4.49367442,13.7416279 C3.2107907,13.7416279 1.8944186,13.2013488 1,12.4587442 L1.91144186,11.2096279 C2.73832558,11.8682326 3.54846512,12.2731628 4.54446512,12.2731628 C5.65851163,12.2731628 6.18148837,11.7331628 6.18148837,11.0240465 C6.18148837,10.1801395 5.13497674,9.80897674 4.12251163,9.4207907 C2.8904186,8.94832558 1.47246512,8.29 1.47246512,6.72023256 C1.47246512,5.16748837 2.7215814,4.00293023 4.76381395,4.00293023 Z M42.5576465,1.00002791 L42.5576465,11.4458884 C42.5576465,11.9694233 42.7937395,12.1550047 43.0301116,12.1550047 C43.1143907,12.1550047 43.4350419,12.1064465 43.6038791,12.0726791 L43.6038791,12.0726791 L43.6038791,13.5897023 C43.367507,13.6742605 43.0301116,13.7417953 42.5576465,13.7417953 C41.1564372,13.7417953 40.6331814,12.8470977 40.6331814,11.3448651 L40.6331814,11.3448651 L40.6331814,1.00002791 L42.5576465,1.00002791 Z M57.2935907,4.00298605 L57.2935907,5.3935907 C58.1542419,4.56670698 58.9643814,4.00298605 60.2302419,4.00298605 C62.2049395,4.00298605 63.082614,5.31935814 63.082614,7.68224186 L63.082614,13.7416837 L61.1416837,13.7416837 L61.1416837,7.91861395 C61.1416837,6.31507907 60.6689395,5.67377674 59.5721953,5.67377674 C58.7115442,5.67377674 58.1204744,6.11275349 57.2935907,6.93963721 L57.2935907,13.7416837 L55.3694047,13.7416837 L55.3694047,4.00298605 L57.2935907,4.00298605 Z M12.0055349,1.00019535 L12.0055349,3.63154419 L11.9377209,5.47117209 C12.7481395,4.6948 13.6763256,4.00298605 14.942186,4.00298605 C16.9168837,4.00298605 17.7945581,5.31935814 17.7945581,7.68224186 L17.7945581,7.68224186 L17.7945581,13.7416837 L15.8536279,13.7416837 L15.8536279,7.91861395 C15.8536279,6.31507907 15.3811628,5.67377674 14.2841395,5.67377674 C13.4232093,5.67377674 12.8324186,6.11275349 12.0055349,6.93963721 L12.0055349,6.93963721 L12.0055349,13.7416837 L10.0813488,13.7416837 L10.0813488,1.00019535 L12.0055349,1.00019535 Z M32.0247163,4.00298605 L32.0247163,5.3935907 C32.8853674,4.56670698 33.695507,4.00298605 34.9613674,4.00298605 C36.9360651,4.00298605 37.8140186,5.31935814 37.8140186,7.68224186 L37.8140186,13.7416837 L35.8728093,13.7416837 L35.8728093,7.91861395 C35.8728093,6.31507907 35.4000651,5.67377674 34.3033209,5.67377674 C33.4426698,5.67377674 32.8513209,6.11275349 32.0247163,6.93963721 L32.0247163,13.7416837 L30.1005302,13.7416837 L30.1005302,4.00298605 L32.0247163,4.00298605 Z M104.894716,4.00298605 C106.076298,4.00298605 106.937228,4.47545116 107.612019,5.06624186 L106.650065,6.33210233 C106.143833,5.8763814 105.620577,5.60652093 104.978995,5.60652093 C103.426251,5.60652093 102.312484,6.92289302 102.312484,8.8975907 C102.312484,10.8555442 103.37574,12.154893 104.928484,12.154893 C105.704856,12.154893 106.39667,11.7837302 106.953693,11.310986 L107.747088,12.5938698 C106.902902,13.3534977 105.806158,13.7416837 104.742623,13.7416837 C102.228205,13.7416837 100.30374,11.9693116 100.30374,8.8975907 C100.30374,5.79210233 102.447553,4.00298605 104.894716,4.00298605 Z M67.7758977,1 L67.7758977,5.21813953 C68.569014,4.52604651 69.5647349,4.00306977 70.5434326,4.00306977 C72.8901302,4.00306977 74.2232465,5.87646512 74.2232465,8.72883721 C74.2232465,11.9188837 72.3160837,13.7417674 70.2230605,13.7417674 C69.3791535,13.7417674 68.569014,13.4255814 67.7758977,12.6662326 L67.7758977,12.6662326 L67.7758977,13.7417674 L65.9025023,13.7417674 L65.9025023,1 L67.7758977,1 Z M112.963628,4.00298605 C115.258977,4.00298605 117.334977,5.79210233 117.334977,8.8975907 C117.334977,11.9693116 115.258977,13.7416837 112.963628,13.7416837 C110.668,13.7416837 108.592,11.9693116 108.592,8.8975907 C108.592,5.79210233 110.668,4.00298605 112.963628,4.00298605 Z M97.1976651,11.007386 C97.9235256,11.007386 98.497293,11.5981767 98.497293,12.391293 C98.497293,13.1846884 97.9235256,13.7417116 97.1976651,13.7417116 C96.4718047,13.7417116 95.8980372,13.1846884 95.8980372,12.391293 C95.8980372,11.5981767 96.4718047,11.007386 97.1976651,11.007386 Z M24.1415535,4.00301395 C26.6060186,4.00301395 27.9223907,5.77510698 27.9223907,8.40813023 C27.9223907,8.77957209 27.8886233,9.16747907 27.8381116,9.38682791 L21.8124372,9.38682791 C21.9642512,11.1592 23.0782977,12.2224558 24.6818326,12.2224558 C25.5089953,12.2224558 26.2175535,11.9693395 26.8929023,11.5303628 L27.5679721,12.7627349 C26.7073209,13.3365023 25.643786,13.7417116 24.4287163,13.7417116 C21.9140186,13.7417116 19.9052744,11.9523163 19.9052744,8.8976186 C19.9052744,5.8764093 21.9642512,4.00301395 24.1415535,4.00301395 Z M50.6761767,8.84691163 C47.925386,9.18458605 46.9966419,9.8764 46.9966419,10.9229116 C46.9966419,11.8343535 47.6212,12.2057953 48.4483628,12.2057953 C49.2585023,12.2057953 49.9168279,11.8173302 50.6761767,11.1255163 L50.6761767,8.84691163 Z M81.2793023,8.84691163 C78.5285116,9.18458605 77.5997674,9.8764 77.5997674,10.9229116 C77.5997674,11.8343535 78.2243256,12.2057953 79.0517674,12.2057953 C79.8616279,12.2057953 80.5199535,11.8173302 81.2793023,11.1255163 L81.2793023,8.84691163 Z M89.6858326,5.60652093 C88.2341116,5.60652093 87.3229488,6.92289302 87.3229488,8.8975907 C87.3229488,10.8555442 88.2341116,12.154893 89.6858326,12.154893 C91.1540186,12.154893 92.0654605,10.8555442 92.0654605,8.8975907 C92.0654605,6.92289302 91.1540186,5.60652093 89.6858326,5.60652093 Z M112.963628,5.60652093 C111.511907,5.60652093 110.600744,6.92289302 110.600744,8.8975907 C110.600744,10.8555442 111.511907,12.154893 112.963628,12.154893 C114.431814,12.154893 115.343256,10.8555442 115.343256,8.8975907 C115.343256,6.92289302 114.431814,5.60652093 112.963628,5.60652093 Z M70.0374791,5.62306977 C69.3116186,5.62306977 68.5519907,6.00818605 67.7758977,6.76781395 L67.7758977,6.76781395 L67.7758977,11.2853953 C68.4847349,11.9099535 69.2778512,12.1382326 69.8516186,12.1382326 C71.2020372,12.1382326 72.2147814,10.939907 72.2147814,8.76232558 C72.2147814,6.82139535 71.5902233,5.62306977 70.0374791,5.62306977 Z M24.1756,5.52171163 C23.0107628,5.52171163 21.9812744,6.4164093 21.795693,8.05371163 L26.2516,8.05371163 C26.2516,6.45017674 25.5254605,5.52171163 24.1756,5.52171163 Z" id="形状结合"></path>
                        </g>
                    </g>
                </g>
            </g>
        </g>
    </g>
</svg>