<?xml version="1.0" encoding="UTF-8"?>
<svg width="70px" height="60px" viewBox="0 0 70 60" version="1.1" xmlns="http://www.w3.org/2000/svg" xmlns:xlink="http://www.w3.org/1999/xlink">
    <!-- Generator: Sketch 61.2 (89653) - https://sketch.com -->
    <title>logo_h5_1</title>
    <desc>Created with Sketch.</desc>
    <g id="V2.5.0_h5" stroke="none" stroke-width="1" fill="none" fill-rule="evenodd">
        <g id="深蓝保测评官网H5_V2.1.0_保险百科入口_1" transform="translate(-20.000000, -142.000000)" fill="#0087FF">
            <g id="编组-2备份-3">
                <g id="顶部导航栏" transform="translate(0.000000, 126.000000)">
                    <g id="logo_H5" transform="translate(20.000000, 16.000000)">
                        <g id="logo_h5_1">
                            <path d="M37.2976744,-7.10542736e-15 L60.5053953,4.41013953 L63.7917209,4.41013953 L63.7917209,17.1055814 L68.4516279,17.1055814 L68.4516279,26.0712558 L63.7917209,26.0712558 L63.7917209,27.1950698 L69.1211163,27.1950698 L69.1211163,30.5659535 L63.7917209,30.5659535 L63.7917209,40.9956279 C63.7917209,42.7096744 63.0591628,44.347814 61.7815814,45.4906047 C57.3622326,49.4436279 46.1570233,58.747814 37.5728372,59.7686512 L37.5728372,59.7686512 L37.2976744,59.8013023 L37.0225116,59.7686512 C28.7105692,58.7802215 17.9416379,50.0260218 13.2545944,45.8828257 L12.8134884,45.4906047 C11.536186,44.347814 10.8033488,42.7096744 10.8033488,40.9956279 L10.8033488,40.9956279 L10.8033488,30.5659535 L4.97469767,30.5659535 L4.97469767,27.3145116 L10.8033488,27.3145116 L10.8033488,26.0461395 L15.4643721,26.0461395 L15.4643721,27.3145116 L20.5629767,27.3145116 L20.5629767,30.5659535 L15.4643721,30.5659535 L15.4643721,40.9956279 C15.4643721,41.3849302 15.6309767,41.7569302 15.9209302,42.0164651 C19.0727442,44.8356279 29.8356279,54.0237209 37.2976744,55.104 C44.7594419,54.0237209 55.5223256,44.8356279 58.6741395,42.0164651 C58.964093,41.7569302 59.1306977,41.3849302 59.1306977,40.9956279 L59.1306977,40.9956279 L59.1306977,30.5659535 L53.8197209,30.5659535 L53.8197209,27.1950698 L59.1306977,27.1950698 L59.1306977,26.0712558 L54.4892093,26.0712558 L54.4892093,17.1055814 L59.1306977,17.1055814 L59.1306977,8.89311628 L37.2976744,4.74446512 L15.4643721,8.89311628 L15.4643721,17.1055814 L20.5392558,17.1055814 L20.5392558,21.5048372 L16.3791628,21.5048372 L16.3791628,20.1658605 L9.18251163,20.1658605 L9.18251163,21.5048372 L5.0224186,21.5048372 L5.0224186,17.1055814 L10.8033488,17.1055814 L10.8033488,4.41013953 L14.0896744,4.41013953 L37.2976744,-7.10542736e-15 Z M53.9344186,17.1055814 C53.7644651,18.2575814 53.5875349,19.3660465 53.4025116,20.4290233 C53.2113488,21.5285581 52.972186,22.6922791 52.6853023,23.9196279 L52.6853023,23.9196279 L52.6853023,38.8861395 L17.2682791,38.8861395 C17.1566512,38.455814 17.0450233,37.8856744 16.9336744,37.1765581 C16.8220465,36.4674419 16.7143256,35.7301395 16.6107907,34.9652093 C16.5069767,34.2002791 16.4232558,33.4671628 16.359907,32.7655814 C16.3253023,32.3860465 16.2982326,32.0522791 16.2778605,31.7567442 L16.2778605,31.7567442 L20.0349767,31.7567442 C20.067907,32.0522791 20.1094884,32.3860465 20.1611163,32.7655814 C20.2568372,33.4671628 20.368186,34.2002791 20.496,34.9652093 C20.5177674,35.0952558 20.5409302,35.2194419 20.5629767,35.347814 L20.5629767,35.347814 L24.4883721,35.347814 L24.4883721,30.5659535 L44.1650233,30.5659535 L44.1650233,35.347814 L48.5492093,35.347814 L48.5492093,28.2795349 L47.2342326,28.2795349 C47.5367442,27.147907 47.815814,25.6610233 48.0708837,24.6008372 C48.3259535,23.5409302 48.5570233,22.5410233 48.7643721,21.6002791 C48.9714419,20.660093 49.1469767,19.7991628 49.2904186,19.0183256 C49.424093,18.2893953 49.5290233,17.6542326 49.6074419,17.1055814 L49.6074419,17.1055814 Z M4.01665116,23.9330233 L4.01665116,38.8861395 L-2.84661184e-13,38.8861395 L-2.84661184e-13,23.9330233 L4.01665116,23.9330233 Z M58.7496279,31.7567442 C58.7194884,32.0425116 58.682093,32.3665116 58.6374419,32.7295814 C58.5495349,33.4389767 58.4496279,34.180186 58.3385581,34.9532093 C58.2266512,35.7265116 58.1069302,36.4674419 57.9799535,37.1768372 C57.8518605,37.8856744 57.7324186,38.455814 57.6213488,38.8861395 L57.6213488,38.8861395 L53.4609767,38.8861395 C53.5885116,38.455814 53.7316744,37.8697674 53.8913023,37.1288372 C54.0506512,36.387907 54.202186,35.6268837 54.3456279,34.8454884 C54.4893488,34.0649302 54.6163256,33.3237209 54.7282326,32.6218605 C54.7801395,32.2950698 54.8231163,32.0076279 54.8577209,31.7567442 L54.8577209,31.7567442 Z M68.085014,31.7567721 C68.1221302,32.148586 68.1631535,32.5493302 68.2128279,32.9687721 C68.2920837,33.6463535 68.3875256,34.3236558 68.4994326,35.0009581 C68.6107814,35.6785395 68.7344093,36.3477488 68.8700372,37.0094233 C69.005386,37.6705395 69.153014,38.296214 69.3123628,38.8861674 L69.3123628,38.8861674 L65.2717116,38.8861674 C65.0004558,37.5790047 64.7774791,36.2997488 64.6025023,35.0489581 C64.4565488,34.0102605 64.3518977,32.9104465 64.2832465,31.7567721 L64.2832465,31.7567721 Z M10.0740279,31.7568279 C10.0410977,32.0523628 9.99951628,32.3858512 9.9476093,32.7656651 C9.85216744,33.4669674 9.74807442,34.2000837 9.63700465,34.965293 C9.52509767,35.7302233 9.40565581,36.4714326 9.2784,37.1886419 C9.15058605,37.9061302 9.03086512,38.4715256 8.91951628,38.8859442 L8.91951628,38.8859442 L4.80742326,38.8859442 C4.93495814,38.4556186 5.0784,37.8734791 5.23774884,37.1406419 C5.3968186,36.4075256 5.55226047,35.6506884 5.70379535,34.8695721 C5.85505116,34.0887349 5.98677209,33.3511535 6.0984,32.6582233 C6.15337674,32.3155256 6.19858605,32.0155256 6.23430698,31.7568279 L6.23430698,31.7568279 Z M29.868,33.076186 L28.3615814,33.076186 L28.3615814,35.347814 L29.868,35.347814 L29.868,33.076186 Z M35.1036279,33.076186 L33.5974884,33.076186 L33.5974884,35.347814 L35.1036279,35.347814 L35.1036279,33.076186 Z M40.267814,33.076186 L38.8571163,33.076186 L38.8571163,35.347814 L40.267814,35.347814 L40.267814,33.076186 Z M27.6683721,22.736093 L27.6683721,29.3327442 L24.0343256,29.3327442 L24.0343256,22.736093 L27.6683721,22.736093 Z M32.6651163,22.736093 L32.6651163,29.3327442 L28.6484651,29.3327442 L28.6484651,22.736093 L32.6651163,22.736093 Z M45.1931163,22.7361209 L45.1931163,26.0712837 L42.3454884,26.0712837 C42.4261395,26.2367721 43.7388837,29.1022605 43.8415814,29.3327721 L43.8415814,29.3327721 L39.9906977,29.3327721 C39.9086512,29.1396558 38.5227907,26.1192837 38.3790698,25.8321209 C38.124,26.4382605 37.016093,29.1047721 36.8955349,29.3327721 L36.8955349,29.3327721 L32.6651163,29.3327721 C32.8386977,28.9973302 33.352186,27.592493 33.5257674,27.2308186 C33.8126512,26.6330512 34.0875349,26.0274698 34.3504186,25.4137953 C34.6135814,24.8004 34.8527442,24.1864465 35.067907,23.5727721 C35.1686512,23.2856093 35.264093,23.0076558 35.355907,22.7361209 L35.355907,22.7361209 L45.1931163,22.7361209 Z M12.275386,22.736093 C12.2326884,22.8396279 12.1930605,22.9406512 12.147293,23.0466977 C11.9717581,23.4530233 11.7847814,23.8596279 11.5855256,24.2662326 C11.3859907,24.6725581 11.1867349,25.0632558 10.9874791,25.4374884 C10.8658047,25.6663256 10.7460837,25.8767442 10.6272,26.0729302 L10.6272,26.0729302 L5.08543256,26.0729302 C5.59166512,25.4190698 6.04710698,24.784186 6.44506047,24.1705116 C6.74506047,23.7075349 7.01464186,23.2283721 7.25966512,22.736093 L7.25966512,22.736093 Z M18.6682047,22.7360093 C18.9439256,23.1348 19.2207628,23.558986 19.4989953,24.014986 C19.913693,24.6950791 20.2965767,25.3815907 20.6590884,26.0728465 L20.6590884,26.0728465 L15.4960186,26.0728465 C15.1862512,25.410893 14.8443907,24.7489395 14.4662512,24.086986 C14.1986233,23.618707 13.9279256,23.1699628 13.6547163,22.7360093 L13.6547163,22.7360093 Z M64.5304186,20.4047442 L58.4338605,20.4047442 L58.4338605,22.652093 L64.5304186,22.652093 L64.5304186,20.4047442 Z M4.01665116,17.1055814 L4.01665116,21.5048372 L-2.84661184e-13,21.5048372 L-2.84661184e-13,17.1055814 L4.01665116,17.1055814 Z M32.1871256,17.1055535 L32.1871256,17.6793209 L36.5861023,17.6793209 L36.5861023,17.1055535 L40.9373581,17.1055535 L40.9373581,17.6793209 L45.1211721,17.6793209 L45.1211721,20.7396 L40.9373581,20.7396 L40.9373581,21.5048093 L36.5861023,21.5048093 L36.5861023,20.7396 L32.1871256,20.7396 L32.1871256,21.5048093 L27.8355907,21.5048093 L27.8355907,20.7396 L23.6514977,20.7396 L23.6514977,17.6793209 L27.8355907,17.6793209 L27.8355907,17.1055535 L32.1871256,17.1055535 Z" id="形状结合"></path>
                        </g>
                    </g>
                </g>
            </g>
        </g>
    </g>
</svg>